<mxfile host="app.diagrams.net" modified="2024-01-06T06:51:07.688Z" agent="Mozilla/5.0 (Macintosh; Intel Mac OS X 10_15_7) AppleWebKit/537.36 (KHTML, like Gecko) Chrome/120.0.0.0 Safari/537.36" etag="yBl7GFGqlB4W4hRf2b-0" version="22.1.17" type="github">
  <diagram name="Page-1" id="c7558073-3199-34d8-9f00-42111426c3f3">
    <mxGraphModel dx="2074" dy="1150" grid="1" gridSize="10" guides="1" tooltips="1" connect="1" arrows="1" fold="1" page="1" pageScale="1" pageWidth="826" pageHeight="1169" background="none" math="0" shadow="0">
      <root>
        <mxCell id="0" />
        <mxCell id="1" parent="0" />
        <mxCell id="2grBrJpjC3BacJpDL_y_-104" style="edgeStyle=orthogonalEdgeStyle;rounded=1;orthogonalLoop=1;jettySize=auto;html=1;curved=0;strokeColor=#990000;strokeWidth=2;entryX=0.139;entryY=0;entryDx=0;entryDy=0;entryPerimeter=0;" edge="1" parent="1" source="5" target="2grBrJpjC3BacJpDL_y_-99">
          <mxGeometry relative="1" as="geometry">
            <mxPoint x="570" y="240" as="targetPoint" />
            <Array as="points">
              <mxPoint x="360" y="190" />
              <mxPoint x="510" y="190" />
            </Array>
          </mxGeometry>
        </mxCell>
        <mxCell id="2grBrJpjC3BacJpDL_y_-106" style="edgeStyle=orthogonalEdgeStyle;rounded=0;orthogonalLoop=1;jettySize=auto;html=1;strokeColor=#990000;strokeWidth=2;" edge="1" parent="1">
          <mxGeometry relative="1" as="geometry">
            <mxPoint x="298.5" y="140" as="sourcePoint" />
            <mxPoint x="298.5" y="250" as="targetPoint" />
          </mxGeometry>
        </mxCell>
        <mxCell id="5" value="StorageDevice" style="shape=process;whiteSpace=wrap;align=center;verticalAlign=middle;size=0.0475;fontStyle=1;strokeWidth=3;fillColor=#FFCCCC" parent="1" vertex="1">
          <mxGeometry x="170" y="90" width="220" height="50" as="geometry" />
        </mxCell>
        <mxCell id="2grBrJpjC3BacJpDL_y_-114" style="edgeStyle=orthogonalEdgeStyle;rounded=0;orthogonalLoop=1;jettySize=auto;html=1;entryX=0.5;entryY=1;entryDx=0;entryDy=0;strokeWidth=2;strokeColor=#990000;" edge="1" parent="1" source="14" target="2grBrJpjC3BacJpDL_y_-97">
          <mxGeometry relative="1" as="geometry" />
        </mxCell>
        <mxCell id="14" value="StorageSettingViewModel" style="whiteSpace=wrap;align=center;verticalAlign=middle;fontStyle=1;strokeWidth=3;fillColor=#FFFFCC" parent="1" vertex="1">
          <mxGeometry x="195" y="370" width="170" height="60" as="geometry" />
        </mxCell>
        <mxCell id="90" value="EventCallback" style="text;spacingTop=-5;align=center" parent="1" vertex="1">
          <mxGeometry x="300" y="150" width="90" height="20" as="geometry" />
        </mxCell>
        <mxCell id="2grBrJpjC3BacJpDL_y_-105" style="edgeStyle=orthogonalEdgeStyle;rounded=1;orthogonalLoop=1;jettySize=auto;html=1;entryX=0.75;entryY=0;entryDx=0;entryDy=0;curved=0;strokeColor=#990000;strokeWidth=2;" edge="1" parent="1" source="2grBrJpjC3BacJpDL_y_-96" target="2grBrJpjC3BacJpDL_y_-97">
          <mxGeometry relative="1" as="geometry">
            <Array as="points">
              <mxPoint x="490" y="170" />
              <mxPoint x="322" y="170" />
            </Array>
          </mxGeometry>
        </mxCell>
        <mxCell id="2grBrJpjC3BacJpDL_y_-107" value="" style="edgeStyle=orthogonalEdgeStyle;rounded=0;orthogonalLoop=1;jettySize=auto;html=1;strokeColor=#990000;strokeWidth=2;" edge="1" parent="1">
          <mxGeometry relative="1" as="geometry">
            <mxPoint x="530" y="140" as="sourcePoint" />
            <mxPoint x="530" y="250" as="targetPoint" />
          </mxGeometry>
        </mxCell>
        <mxCell id="2grBrJpjC3BacJpDL_y_-96" value="StorageSetting" style="shape=process;whiteSpace=wrap;align=center;verticalAlign=middle;size=0.0475;fontStyle=1;strokeWidth=3;fillColor=#FFCCCC" vertex="1" parent="1">
          <mxGeometry x="460" y="90" width="220" height="50" as="geometry" />
        </mxCell>
        <mxCell id="2grBrJpjC3BacJpDL_y_-111" style="edgeStyle=orthogonalEdgeStyle;rounded=0;orthogonalLoop=1;jettySize=auto;html=1;entryX=0.5;entryY=1;entryDx=0;entryDy=0;strokeWidth=2;strokeColor=#990000;" edge="1" parent="1">
          <mxGeometry relative="1" as="geometry">
            <mxPoint x="256" y="250" as="sourcePoint" />
            <mxPoint x="256" y="140" as="targetPoint" />
          </mxGeometry>
        </mxCell>
        <mxCell id="2grBrJpjC3BacJpDL_y_-97" value="&lt;p style=&quot;margin: 0px; margin-top: 4px; text-align: center; text-decoration: underline;&quot;&gt;&lt;strong&gt;StorageManager&lt;/strong&gt;&lt;/p&gt;&lt;hr&gt;&lt;p style=&quot;margin: 0px; margin-left: 8px;&quot;&gt;Handle Storage Event&lt;/p&gt;" style="verticalAlign=middle;align=center;overflow=fill;fontSize=12;fontFamily=Helvetica;html=1;rounded=1;fontStyle=1;strokeWidth=3;fillColor=#E6FFCC" vertex="1" parent="1">
          <mxGeometry x="197" y="250" width="166" height="60" as="geometry" />
        </mxCell>
        <mxCell id="2grBrJpjC3BacJpDL_y_-113" style="edgeStyle=orthogonalEdgeStyle;rounded=0;orthogonalLoop=1;jettySize=auto;html=1;entryX=0;entryY=0.5;entryDx=0;entryDy=0;strokeWidth=2;strokeColor=#990000;" edge="1" parent="1" source="2grBrJpjC3BacJpDL_y_-99" target="2grBrJpjC3BacJpDL_y_-112">
          <mxGeometry relative="1" as="geometry" />
        </mxCell>
        <mxCell id="2grBrJpjC3BacJpDL_y_-99" value="&lt;p style=&quot;margin: 0px; margin-top: 4px; text-align: center; text-decoration: underline;&quot;&gt;&lt;strong&gt;MediaStore&lt;/strong&gt;&lt;/p&gt;&lt;hr&gt;&lt;p style=&quot;margin: 0px; margin-left: 8px;&quot;&gt;Handle Media Event&lt;/p&gt;" style="verticalAlign=middle;align=center;overflow=fill;fontSize=12;fontFamily=Helvetica;html=1;rounded=1;fontStyle=1;strokeWidth=3;fillColor=#E6FFCC" vertex="1" parent="1">
          <mxGeometry x="487" y="250" width="166" height="60" as="geometry" />
        </mxCell>
        <mxCell id="2grBrJpjC3BacJpDL_y_-110" value="SettingFlow" style="text;spacingTop=-5;align=center" vertex="1" parent="1">
          <mxGeometry x="470" y="150" width="90" height="20" as="geometry" />
        </mxCell>
        <mxCell id="2grBrJpjC3BacJpDL_y_-118" style="edgeStyle=orthogonalEdgeStyle;rounded=0;orthogonalLoop=1;jettySize=auto;html=1;entryX=1;entryY=0.5;entryDx=0;entryDy=0;strokeWidth=2;strokeColor=#990000;" edge="1" parent="1" source="2grBrJpjC3BacJpDL_y_-112" target="2grBrJpjC3BacJpDL_y_-99">
          <mxGeometry relative="1" as="geometry" />
        </mxCell>
        <mxCell id="2grBrJpjC3BacJpDL_y_-112" value="Database" style="shape=process;whiteSpace=wrap;align=center;verticalAlign=middle;size=0.0475;fontStyle=1;strokeWidth=3;fillColor=#FFCCCC" vertex="1" parent="1">
          <mxGeometry x="760" y="255" width="220" height="50" as="geometry" />
        </mxCell>
        <mxCell id="2grBrJpjC3BacJpDL_y_-117" value="" style="edgeStyle=orthogonalEdgeStyle;rounded=0;orthogonalLoop=1;jettySize=auto;html=1;strokeWidth=2;strokeColor=#990000;" edge="1" parent="1" source="2grBrJpjC3BacJpDL_y_-115" target="2grBrJpjC3BacJpDL_y_-99">
          <mxGeometry relative="1" as="geometry" />
        </mxCell>
        <mxCell id="2grBrJpjC3BacJpDL_y_-115" value="MediaStoreViewModel" style="whiteSpace=wrap;align=center;verticalAlign=middle;fontStyle=1;strokeWidth=3;fillColor=#FFFFCC" vertex="1" parent="1">
          <mxGeometry x="485" y="370" width="170" height="60" as="geometry" />
        </mxCell>
      </root>
    </mxGraphModel>
  </diagram>
</mxfile>
